<?xml version="1.0" encoding="utf-8"?>
<!-- Generator: Adobe Illustrator 19.0.1, SVG Export Plug-In . SVG Version: 6.00 Build 0)  -->
<svg version="1.1" id="Layer_1" xmlns="http://www.w3.org/2000/svg" xmlns:xlink="http://www.w3.org/1999/xlink" x="0px" y="0px"
	 viewBox="0 0 286 247" style="enable-background:new 0 0 286 247;" xml:space="preserve">
<style type="text/css">
	.st0{fill:#CBE8FF;}
	.st1{fill:#FFFFFF;}
	.st2{fill:#E9F5FA;}
	.st3{fill:#D0ECFF;}
	.st4{fill:#00A1FF;}
	.st5{fill:#242D3C;stroke:#31475A;stroke-miterlimit:10;}
	.st6{fill:none;stroke:#31475A;stroke-linecap:round;stroke-linejoin:round;stroke-miterlimit:10;}
	.st7{fill:#2E9FFF;}
	.st8{fill:#FFB286;}
	.st9{fill:#1C413F;}
	.st10{opacity:0.1;fill:#474747;}
</style>
<polyline class="st0" points="95.9,170.2 95.9,42.1 198.2,42.1 198.2,170.2 "/>
<g>
	<circle class="st1" cx="147.4" cy="98.4" r="28.3"/>
</g>
<g>
	<rect x="129" y="19.8" class="st2" width="36.9" height="7.1"/>
	<polygon class="st3" points="165.9,19.8 165.9,55.5 173.1,55.5 173.1,26.9 	"/>
	<polygon class="st3" points="129,19.8 129,55.5 121.8,55.5 121.8,26.9 	"/>
</g>
<polyline class="st4" points="198.7,170.2 198.7,154.9 96.2,154.9 96.2,170.2 "/>
<ellipse class="st5" cx="160.3" cy="91.1" rx="1.9" ry="3.1"/>
<ellipse class="st1" cx="159.4" cy="90.8" rx="0.4" ry="1"/>
<ellipse class="st1" cx="160.5" cy="89.5" rx="0.3" ry="0.4"/>
<ellipse class="st5" cx="134.3" cy="91.1" rx="1.9" ry="3.1"/>
<ellipse class="st1" cx="133.3" cy="90.8" rx="0.4" ry="1"/>
<ellipse class="st1" cx="134.6" cy="89.5" rx="0.3" ry="0.4"/>
<path class="st6" d="M143,104c0.3,1.9,1.9,3.1,3.9,2.9c1.9-0.3,3.1-1.9,2.9-3.9"/>
<path class="st7" d="M89.4,127.5c-0.6-0.1-11.9-4-11.9-16.4c0-12.7,9.8-16.4,15-16.5c1.9-0.1,3.6,1.5,3.7,3.4
	c0.1,1.9-1.5,3.7-3.4,3.7c-0.9,0-8.2,0.6-8.2,9.4c0,7,6.7,9.4,7,9.5c1.8,0.6,2.8,2.5,2.2,4.5c-0.6,1.5-1.9,2.4-3.4,2.4
	C90,127.5,89.7,127.5,89.4,127.5z"/>
<path class="st7" d="M196.1,98.6c-1.3-1.5-1.2-3.7,0.3-5.1s3.7-1.2,5.1,0.3c1.5,1.6,6.4,6.3,11,6.4c1.9,0.1,3.6-0.6,5.2-2.2
	c4.9-4.9,1.9-11.3,1.8-11.6c-0.9-1.8-0.1-3.9,1.6-4.8c1.8-0.9,3.9-0.1,4.8,1.6c0.3,0.4,5.5,11.2-3.1,19.8c-3,3-6.6,4.5-10.4,4.3
	c-6.7-0.1-12.5-5.2-14.9-7.6C196.9,99.2,196.4,98.7,196.1,98.6z"/>
<path class="st7" d="M131.2,196.7L131.2,196.7L131.2,196.7v6.6l0,0v2.1h-16.1v-1.9l0,0l0,0v-0.1l0,0c0-3.6,3.1-6.6,6.9-6.6l0,0h0.1
	l0,0l0,0h2.5l0,0h-0.1v-5.7h0.1v-19.2l0,0c0-0.1,0-0.4,0-0.6c0-2.2,1.5-4,3.3-4c1.8,0,3.3,1.8,3.3,4c0,0.3,0,0.4,0,0.6l0,0v19.2l0,0
	V196.7L131.2,196.7z"/>
<path class="st7" d="M175.7,196.7L175.7,196.7L175.7,196.7v6.6l0,0v2.1h-16.1v-1.9l0,0l0,0v-0.1l0,0c0-3.6,3.1-6.6,6.9-6.6l0,0h0.1
	l0,0l0,0h2.5l0,0H169v-5.7h0.1v-19.2l0,0c0-0.1,0-0.4,0-0.6c0-2.2,1.5-4,3.3-4c1.8,0,3.3,1.8,3.3,4c0,0.3,0,0.4,0,0.6l0,0v19.2l0,0
	V196.7L175.7,196.7z"/>
<ellipse class="st8" cx="131.4" cy="97.2" rx="2.5" ry="0.6"/>
<path class="st9" d="M142.3,86c2.3,0.5,3.8,2.8,3.2,5.1c-2.3,9.5-5.2,12-13.1,12c-7.8,0-10.6-6.8-11.5-12.2
	c-0.4-2.4,1.2-4.6,3.6-4.9"/>
<path class="st9" d="M168.6,86c2.3,0.5,3.8,2.8,3.2,5.1c-2.3,9.5-5.2,12-13.1,12c-7.8,0-10.6-6.8-11.5-12.2
	c-0.4-2.4,1.2-4.6,3.6-4.9"/>
<path class="st9" d="M151.9,90.7c0,1.1-0.7,2-1.6,2h-7.8c-0.9,0-1.6-0.9-1.6-2v-1.5c0-1.1,0.7-2,1.6-2h7.8c0.9,0,1.6,0.9,1.6,2V90.7
	z"/>
<g>
	<path class="st9" d="M131.5,90.4c0,1.2-0.8,2.1-1.8,2.1h-8.5c-1,0-1.8-0.9-1.8-2.1v-1.6c0-1.2,0.8-2.1,1.8-2.1h8.5
		c1,0,1.8,0.9,1.8,2.1V90.4z"/>
	<path class="st9" d="M173.7,90.4c0,1.2-0.8,2.1-1.8,2.1h-8.5c-1,0-1.8-0.9-1.8-2.1v-1.6c0-1.2,0.8-2.1,1.8-2.1h8.5
		c1,0,1.8,0.9,1.8,2.1V90.4z"/>
</g>
<path class="st0" d="M203.7,9.4c0.5-0.2,1.1,0,1.3,0.5l0.6,1.3l1.3-0.6c0.5-0.2,1.1,0,1.3,0.5c0.2,0.5,0,1.1-0.5,1.3l-1.3,0.6
	l0.6,1.3c0.2,0.5,0,1.1-0.5,1.3c-0.5,0.2-1.1,0-1.3-0.5l-0.6-1.3l-1.3,0.6c-0.5,0.2-1.1,0-1.3-0.5c-0.2-0.5,0-1.1,0.5-1.3l1.3-0.6
	l-0.6-1.3C202.9,10.2,203.2,9.6,203.7,9.4z"/>
<path class="st0" d="M221.3,25.8c0.2-0.1,0.5-0.2,0.8-0.2l2.1,0.1l1.3-1.7c0.4-0.6,1.3-0.8,2-0.5c0.4,0.2,0.8,0.6,0.9,1l0.6,2.1
	l2,0.7c0.6,0.2,1,0.7,1.1,1.3c0.1,0.6-0.2,1.2-0.7,1.6l-1.8,1.2l0,2.1c0,0.6-0.4,1.2-0.9,1.4c-0.6,0.3-1.2,0.2-1.7-0.2l-1.7-1.3
	l-2,0.6c-0.6,0.2-1.2,0-1.7-0.4c-0.4-0.5-0.6-1.1-0.3-1.7l0.7-2l-1.2-1.7c-0.3-0.4-0.4-0.9-0.2-1.3C220.6,26.4,220.9,26,221.3,25.8z
	 M225.2,27.5c-0.2,0.1-0.5,0.2-0.8,0.2l-1.6-0.1l0.9,1.3c0.3,0.4,0.4,1,0.2,1.5l-0.5,1.5l1.5-0.5c0.5-0.2,1.1-0.1,1.5,0.3l1.2,1
	l0-1.6c0-0.5,0.3-1,0.7-1.3l1.3-0.9l-1.5-0.5c-0.5-0.2-0.9-0.6-1-1.1l-0.4-1.5l-0.9,1.3C225.6,27.2,225.4,27.4,225.2,27.5z"/>
<path class="st0" d="M205.3,65.8c-0.2-0.5,0-1.1,0.4-1.3c0,0,0,0,0,0c1-0.5,1.4-1.6,0.9-2.5c-0.2-0.5,0-1.1,0.5-1.3s1.1,0,1.3,0.5
	c0.5,1,1.6,1.3,2.5,0.9c0.5-0.2,1.1,0,1.3,0.5c0.2,0.5,0,1.1-0.5,1.3c-0.5,0.2-0.8,0.6-1,1.1c-0.2,0.5-0.1,1,0.1,1.5
	c0.2,0.5,0,1.1-0.5,1.3c0,0,0,0,0,0c-0.5,0.2-1.1,0-1.3-0.5c-0.5-1-1.6-1.4-2.6-0.9c0,0,0,0,0,0l0,0l0,0
	C206.1,66.5,205.5,66.2,205.3,65.8"/>
<g>
	<ellipse class="st10" cx="143" cy="205.4" rx="135" ry="41.6"/>
	<ellipse class="st10" cx="143" cy="202.6" rx="69.1" ry="21.3"/>
</g>
</svg>
