<?xml version="1.0" encoding="utf-8"?>
<!-- Generator: Adobe Illustrator 19.0.1, SVG Export Plug-In . SVG Version: 6.00 Build 0)  -->
<svg version="1.1" id="Layer_1" xmlns="http://www.w3.org/2000/svg" xmlns:xlink="http://www.w3.org/1999/xlink" x="0px" y="0px"
	 viewBox="0 0 200 200" style="enable-background:new 0 0 200 200;" xml:space="preserve">
<style type="text/css">
	.st0{fill:#CBE8FF;}
	.st1{fill:#FFFFFF;}
	.st2{fill:#E9F5FA;}
	.st3{fill:#D0ECFF;}
	.st4{fill:#00A1FF;}
	.st5{fill:#242D3C;stroke:#31475A;stroke-miterlimit:10;}
	.st6{fill:none;stroke:#31475A;stroke-linecap:round;stroke-linejoin:round;stroke-miterlimit:10;}
	.st7{fill:#2E9FFF;}
	.st8{font-family:'MicrosoftSansSerif';}
	.st9{font-size:13px;}
	.st10{fill:#FFB286;}
</style>
<polyline class="st0" points="49.9,176.4 49.9,90.4 118.6,90.4 118.6,176.4 "/>
<g>
	<circle class="st1" cx="84" cy="128.2" r="19"/>
</g>
<g>
	<rect x="71.6" y="75.4" class="st2" width="24.8" height="4.8"/>
	<polygon class="st3" points="66.8,80.2 66.8,99.4 71.6,99.4 71.6,75.4 	"/>
	<polygon class="st3" points="101.2,80.2 101.2,99.4 96.4,99.4 96.4,75.4 	"/>
</g>
<polyline class="st4" points="118.4,176.4 118.4,166.1 49.6,166.1 49.6,176.4 "/>
<ellipse class="st5" cx="75.4" cy="123.3" rx="1.3" ry="2.1"/>
<ellipse class="st1" cx="76" cy="123.1" rx="0.3" ry="0.7"/>
<ellipse class="st1" cx="75.2" cy="122.2" rx="0.2" ry="0.3"/>
<ellipse class="st5" cx="92.8" cy="123.3" rx="1.3" ry="2.1"/>
<ellipse class="st1" cx="93.5" cy="123.1" rx="0.3" ry="0.7"/>
<ellipse class="st1" cx="92.6" cy="122.2" rx="0.2" ry="0.3"/>
<path class="st6" d="M86.9,133.9c0-1.3-0.9-2.3-2.2-2.4c-1.3,0-2.3,0.9-2.4,2.2"/>
<path class="st7" d="M122.3,147.7c-1,0-1.9-0.6-2.3-1.6c-0.4-1.3,0.3-2.6,1.5-3c0.2-0.1,4.7-1.7,4.7-6.4c0-5.9-4.9-6.3-5.5-6.3
	c-1.3,0-2.4-1.2-2.3-2.5s1.2-2.4,2.5-2.3c3.5,0.1,10.1,2.6,10.1,11.1c0,8.3-7.6,10.9-8,11C122.8,147.7,122.6,147.7,122.3,147.7z"/>
<path class="st7" d="M50.4,129.1c-1.6,1.6-5.5,5-10,5.1c-2.6,0.1-5-0.9-7-2.9c-5.8-5.8-2.3-13-2.1-13.3c0.6-1.2,2-1.7,3.2-1.1
	c1.2,0.6,1.7,2,1.1,3.2c-0.1,0.2-2.1,4.5,1.2,7.8c1.1,1.1,2.2,1.6,3.5,1.5c3.1-0.1,6.4-3.2,7.4-4.3c0.9-1,2.4-1.1,3.4-0.2
	s1.1,2.4,0.2,3.4C51.1,128.4,50.8,128.7,50.4,129.1z"/>
<path class="st7" d="M94.9,194.2v-3.8l0,0v-12.9l0,0c0-0.1,0-0.2,0-0.4c0-1.5,1-2.7,2.2-2.7s2.2,1.2,2.2,2.7c0,0.1,0,0.3,0,0.4l0,0
	v12.9h0.1v3.8h-0.1l0,0h1.7l0,0l0,0h0.1l0,0c2.5,0,4.6,2,4.6,4.4l0,0v0.1l0,0l0,0v1.3H94.9v-1.4l0,0V194.2L94.9,194.2L94.9,194.2
	L94.9,194.2z"/>
<path class="st7" d="M65,194.2v-3.8l0,0v-12.9l0,0c0-0.1,0-0.2,0-0.4c0-1.5,1-2.7,2.2-2.7s2.2,1.2,2.2,2.7c0,0.1,0,0.3,0,0.4l0,0
	v12.9h0.1v3.8h-0.1l0,0h1.7l0,0l0,0h0.1l0,0c2.5,0,4.6,2,4.6,4.4l0,0v0.1l0,0l0,0v1.3H65v-1.4l0,0V194.2L65,194.2L65,194.2L65,194.2
	z"/>
<path class="st7" d="M184.3,36.8h-64.7c-6.1,0-11,2.4-11,5.3v31.3c0,2.9,4.9,5.3,11,5.3h25.9l-4.5,4.1l21.3-4.1h22
	c6.1,0,11-2.4,11-5.3V42.1C195.4,39.2,190.4,36.8,184.3,36.8z"/>
<text transform="matrix(1 0 0 1 120.0254 61.7857)" class="st1 st8 st9">Ohh Noo...</text>
<ellipse class="st10" cx="94.8" cy="127.4" rx="1.7" ry="0.4"/>
<ellipse class="st10" cx="73.7" cy="127.4" rx="1.7" ry="0.4"/>
</svg>
